<!-- icon666.com - MILLIONS OF FREE VECTOR ICONS --><svg fill="none" viewBox="0 0 24 24" xmlns="http://www.w3.org/2000/svg"><g clip-rule="evenodd" fill="rgb(0,0,0)" fill-rule="evenodd"><path d="m19.6297 4.28914c.3885.39256.3884 1.02907-.0001 1.42167l-13.8526 13.99999c-.38848.3926-1.01829.3926-1.40672.0001-.38843-.3926-.3884-1.0291.00008-1.4217l13.85264-13.99997c.3885-.39261 1.0183-.39265 1.4067-.00009z" fill="rgb(0,0,0)" style="fill: rgb(122, 100, 215);"></path><path d="m4.37036 4.28916c.38846-.39259 1.01826-.39259 1.40672 0l13.85262 13.99994c.3885.3926.3885 1.0291 0 1.4217-.3884.3926-1.0182.3926-1.4067 0l-13.85264-13.99997c-.38845-.39258-.38845-1.02909 0-1.42167z" fill="rgb(0,0,0)" style="fill: rgb(122, 100, 215);"></path></g></svg>